<svg width="58" height="64" fill="none" xmlns="http://www.w3.org/2000/svg"><path d="M54.657 29.757H3.391a3.266 3.266 0 0 1-3.263-3.262v-9.772A3.267 3.267 0 0 1 3.39 13.46h51.265a3.266 3.266 0 0 1 3.262 3.263v9.773a3.264 3.264 0 0 1-3.26 3.261ZM3.391 15.96a.773.773 0 0 0-.763.763v9.773c0 .42.342.762.763.762h51.265c.42 0 .762-.342.762-.762v-9.773a.772.772 0 0 0-.762-.763H3.391Z" fill="#fff"/><path d="M47.508 63.236h-36.97a6.289 6.289 0 0 1-6.282-6.282V28.507a1.25 1.25 0 0 1 2.5 0v28.447a3.786 3.786 0 0 0 3.781 3.782h36.97a3.786 3.786 0 0 0 3.781-3.782V28.507a1.25 1.25 0 0 1 2.5 0v28.447a6.288 6.288 0 0 1-6.28 6.282Z" fill="#fff"/><path d="M29.023 63.236c-.69 0-1.25-.56-1.25-1.25V28.507a1.25 1.25 0 0 1 2.5 0v33.478a1.25 1.25 0 0 1-1.25 1.251Zm-15.601-47.28c-3.913-2.12-5.373-7.027-3.255-10.94 2.117-3.912 7.024-5.372 10.938-3.256C27.07 4.99 30.29 14 30.422 14.383l-2.358.83c-.03-.086-3.038-8.486-8.148-11.254a5.578 5.578 0 0 0-7.55 2.246 5.58 5.58 0 0 0 2.248 7.553l-1.192 2.198Z" fill="#fff"/><path d="m44.998 16.173-1.19-2.199a5.54 5.54 0 0 0 2.688-3.31 5.53 5.53 0 0 0-.442-4.241 5.527 5.527 0 0 0-3.308-2.688 5.533 5.533 0 0 0-4.24.44c-5.11 2.768-8.118 11.169-8.148 11.254L28 14.599c.134-.382 3.353-9.393 9.316-12.622a8.015 8.015 0 0 1 6.143-.638 8.01 8.01 0 0 1 4.795 3.893 8.014 8.014 0 0 1 .639 6.144 8.027 8.027 0 0 1-3.895 4.797Zm7.54 30.324H5.506a1.25 1.25 0 0 1 0-2.5h47.032a1.25 1.25 0 0 1 0 2.5Z" fill="#fff"/></svg>